<?xml version="1.0" standalone="no"?>
<!DOCTYPE svg PUBLIC "-//W3C//DTD SVG 20010904//EN"
 "http://www.w3.org/TR/2001/REC-SVG-20010904/DTD/svg10.dtd">
<svg version="1.0" xmlns="http://www.w3.org/2000/svg"
 width="80.000000pt" height="30.000000pt" viewBox="30 70 230 100"
 preserveAspectRatio="xMidYMid meet">
<metadata>
Created by potrace 1.10, written by Peter Selinger 2001-2011
</metadata>
<g transform="translate(0.000000,223.000000) scale(0.100000,-0.100000)"
fill="#fff" stroke="none">
<path d="M726 1373 c-3 -27 -13 -120 -21 -208 -9 -88 -17 -167 -19 -176 -4
-21 29 -38 69 -36 27 2 30 6 33 40 3 29 7 37 23 37 12 0 19 -7 19 -18 0 -37
28 -61 68 -59 33 2 37 5 36 27 -7 128 -38 418 -46 428 -7 7 -37 12 -83 12
l-73 0 -6 -47z m135 4 c12 -9 20 -51 33 -172 20 -198 20 -225 2 -225 -7 0 -26
16 -41 36 -21 27 -33 34 -53 32 -22 -2 -28 -9 -30 -35 -3 -27 -7 -33 -28 -33
-29 0 -29 -4 -9 190 19 184 23 207 38 213 23 10 72 6 88 -6z"/>
<path d="M796 1303 c-3 -21 -8 -72 -12 -114 -6 -72 -5 -77 15 -84 11 -3 25 -3
31 0 12 8 13 65 1 84 -5 8 -7 -4 -4 -33 5 -39 3 -46 -12 -46 -17 0 -18 9 -11
115 6 114 3 149 -8 78z"/>
<path d="M1574 1207 c-108 -205 -111 -213 -93 -229 26 -22 160 -33 318 -25
129 7 154 15 131 42 -7 8 -11 15 -9 16 2 0 28 3 57 5 92 7 92 9 17 120 -78
114 -133 184 -145 184 -4 0 -18 -17 -30 -37 l-22 -38 -17 35 c-41 84 -75 140
-85 140 -6 0 -61 -96 -122 -213z m166 98 c37 -66 52 -74 91 -51 32 19 33 19
48 -1 19 -25 135 -195 139 -204 2 -4 -24 -10 -56 -14 -52 -6 -59 -9 -55 -25 4
-14 -2 -21 -23 -27 -38 -10 -311 -10 -346 0 -32 8 -37 36 -12 61 8 9 13 16 10
16 -3 0 10 28 30 63 19 34 55 102 80 150 26 48 51 86 56 85 6 -2 23 -26 38
-53z"/>
<path d="M1969 1361 c-20 -8 -69 -47 -69 -55 0 -3 11 -6 24 -6 15 0 26 7 29
20 3 12 14 20 26 20 12 0 21 4 21 9 0 14 -13 19 -31 12z"/>
<path d="M1007 1341 c-41 -20 -58 -57 -50 -105 5 -29 19 -48 69 -93 67 -58 78
-85 47 -109 -10 -7 -13 -14 -7 -14 29 -1 54 60 34 80 -81 81 -110 122 -110
154 0 71 95 92 153 34 30 -29 30 -32 12 -38 -11 -4 -30 -4 -42 1 -13 5 -23 5
-23 1 0 -18 27 -32 62 -32 34 0 38 3 38 25 0 36 -24 78 -52 93 -35 19 -96 20
-131 3z"/>
<path d="M1302 1350 c-69 -10 -85 -34 -90 -134 -6 -121 4 -190 34 -226 50 -58
163 -49 190 15 17 42 18 89 2 102 -7 6 -30 11 -50 11 -36 1 -38 0 -38 -30 0
-17 -7 -40 -17 -50 -9 -10 -12 -18 -6 -18 12 0 38 29 46 53 8 21 45 23 53 2 8
-21 -15 -74 -37 -85 -29 -16 -88 -12 -108 8 -34 32 -41 60 -41 170 0 102 1
110 24 131 18 17 36 23 68 23 61 -1 98 -43 98 -112 l0 -49 -62 -3 -63 -3 -3
-57 c-2 -36 1 -58 8 -58 5 0 10 22 10 50 l0 50 65 0 65 0 0 65 c0 116 -45 160
-148 145z"/>
<path d="M2126 1341 c-22 -12 -34 -26 -40 -53 -12 -47 4 -68 50 -68 28 0 36 5
44 25 5 14 14 25 20 25 6 0 8 5 5 10 -11 17 -25 11 -35 -14 -12 -33 -50 -25
-50 11 0 18 9 28 33 38 41 17 73 10 110 -23 l27 -26 0 -143 0 -144 -37 3 c-24
2 -37 8 -35 16 3 17 -15 15 -22 -3 -9 -25 -52 -18 -72 13 -37 56 -14 135 52
175 48 29 63 52 45 70 -8 8 -11 5 -11 -14 0 -22 -7 -28 -41 -38 -69 -21 -89
-49 -89 -125 0 -55 4 -69 26 -95 27 -33 70 -41 92 -19 9 9 17 10 30 2 9 -6 33
-11 52 -10 l35 1 3 147 c3 163 -6 203 -52 233 -34 23 -101 25 -140 6z"/>
<path d="M1043 1274 c-9 -23 16 -61 75 -117 47 -45 52 -54 52 -92 0 -48 -26
-79 -76 -88 -48 -9 -104 34 -104 80 0 18 6 23 25 23 18 0 25 -5 25 -20 0 -11
5 -20 10 -20 13 0 13 26 0 51 -14 25 -106 29 -96 3 3 -9 6 -29 6 -45 0 -17 11
-41 28 -60 49 -55 160 -48 193 13 6 12 9 44 7 75 -5 58 -31 95 -95 135 -31 18
-46 58 -22 58 5 0 7 5 4 10 -9 15 -25 12 -32 -6z"/>
<path d="M1307 1283 c-13 -12 -7 -81 8 -93 37 -30 70 30 41 75 -16 24 -36 32
-49 18z m43 -53 c0 -29 -4 -40 -15 -40 -11 0 -15 11 -15 40 0 29 4 40 15 40
11 0 15 -11 15 -40z"/>
<path d="M2181 1161 c-7 -5 -16 -31 -18 -58 -6 -56 15 -86 45 -66 20 12 28 65
13 90 -8 14 -10 6 -11 -34 0 -40 -4 -53 -15 -53 -11 0 -15 12 -15 44 0 26 6
51 15 60 25 24 16 36 -14 17z"/>
<path d="M1393 904 c-4 -10 0 -20 10 -26 21 -11 22 -32 2 -24 -8 3 -15 1 -15
-4 0 -14 37 -12 46 2 4 6 -3 19 -16 30 -18 14 -19 18 -6 18 10 0 14 5 11 10
-9 15 -25 12 -32 -6z"/>
<path d="M1450 880 c0 -35 3 -40 23 -40 21 1 21 1 4 14 -14 11 -15 15 -5 19
10 4 10 8 -2 16 -13 9 -12 11 3 11 10 0 15 5 12 10 -3 6 -13 10 -21 10 -10 0
-14 -12 -14 -40z"/>
<path d="M1507 913 c-11 -10 -8 -73 3 -73 6 0 10 7 10 15 0 8 5 15 10 15 17 0
11 18 -7 23 -17 4 -17 5 0 6 9 0 17 6 17 11 0 11 -23 14 -33 3z"/>
<path d="M1551 879 c-14 -41 -14 -44 4 -29 12 10 18 9 31 -4 9 -10 18 -15 21
-13 6 6 -29 77 -38 77 -4 0 -12 -14 -18 -31z"/>
<path d="M730 880 c0 -7 624 -21 639 -13 1 1 0 6 -4 12 -8 14 -635 15 -635 1z"/>
<path d="M1620 881 c0 -10 291 -23 465 -20 66 1 132 -2 147 -6 35 -9 53 2 34
29 -12 122 -69 14 -330 14 -174 0 -316 -4 -316 -9z"/>
</g>
</svg>
